<?xml version="1.0" standalone="no"?>
<!DOCTYPE svg PUBLIC "-//W3C//DTD SVG 20010904//EN"
 "http://www.w3.org/TR/2001/REC-SVG-20010904/DTD/svg10.dtd">
<svg version="1.0" xmlns="http://www.w3.org/2000/svg"
 width="160.000000pt" height="160.000000pt" viewBox="0 0 160.000000 160.000000"
 preserveAspectRatio="xMidYMid meet">
<metadata>
Created by potrace 1.14, written by Peter Selinger 2001-2017
</metadata>
<g transform="translate(0.000000,160.000000) scale(0.100000,-0.100000)"
fill="#000000" stroke="none">
<path d="M1102 1418 c-6 -14 -14 -54 -18 -87 -4 -34 -9 -59 -12 -56 -3 3 -14
-2 -24 -12 -10 -9 -18 -12 -18 -8 0 4 -9 0 -20 -10 -24 -22 -26 -37 -3 -28 27
10 6 -15 -40 -48 l-41 -30 44 7 44 7 -22 -31 c-13 -17 -31 -34 -42 -37 -11 -4
-20 -10 -20 -15 0 -5 -7 -7 -15 -4 -8 3 -50 -8 -94 -25 -43 -17 -108 -36 -144
-43 l-64 -12 -74 -149 c-83 -169 -144 -261 -220 -337 -43 -42 -54 -48 -61 -35
-11 18 -38 20 -38 2 0 -8 -6 -14 -14 -14 -24 0 -123 -53 -155 -82 -36 -34 -39
-65 -11 -120 66 -130 321 -216 675 -228 313 -11 608 64 780 199 68 53 92 96
73 135 -30 64 -127 103 -365 149 -19 4 -23 11 -23 44 0 48 8 50 35 7 15 -24
29 -33 54 -35 26 -3 32 0 28 11 -4 11 5 9 34 -7 30 -17 42 -19 56 -10 10 7 17
18 15 27 -1 8 4 17 13 20 8 4 12 13 9 22 -5 12 1 15 28 15 52 0 81 41 38 55
-11 3 -20 14 -20 23 0 10 -16 26 -35 36 -43 23 -45 36 -6 36 17 0 32 4 35 9
10 16 -5 41 -29 47 -14 4 -22 11 -19 19 3 8 -6 20 -23 29 -15 8 -22 15 -15 16
23 0 12 30 -14 36 -17 4 -23 11 -20 21 3 8 6 19 6 24 0 5 7 9 15 9 29 0 14 20
-31 41 -32 15 -42 25 -35 32 18 18 13 25 -29 53 -40 27 -40 47 1 37 31 -9 22
12 -26 56 -31 29 -39 41 -27 41 14 1 12 5 -9 23 -32 27 -44 50 -74 136 -22 63
-23 65 -33 39z m-156 -390 c-14 -24 -26 -23 -26 1 0 13 6 19 19 18 15 -1 17
-4 7 -19z m54 18 c0 -2 -8 -10 -17 -17 -16 -13 -17 -12 -4 4 13 16 21 21 21
13z m63 -131 c-3 -9 -8 -14 -10 -11 -3 3 -2 9 2 15 9 16 15 13 8 -4z m323
-103 c-10 -2 -22 0 -28 6 -6 6 0 7 19 4 21 -5 23 -7 9 -10z m-531 -98 c-13
-49 -31 -107 -41 -129 -24 -56 -106 -288 -107 -301 0 -8 -12 -8 -37 -3 -56 13
-92 28 -88 38 6 16 293 489 295 487 2 -1 -8 -42 -22 -92z m154 -160 c55 -127
101 -234 101 -238 0 -13 -69 -36 -107 -36 l-39 0 -27 198 c-32 236 -42 319
-35 312 3 -3 51 -109 107 -236z"/>
</g>
</svg>
